<?xml version="1.0" encoding="utf-8"?>
<!-- Generator: Adobe Illustrator 16.0.0, SVG Export Plug-In . SVG Version: 6.00 Build 0)  -->
<!DOCTYPE svg PUBLIC "-//W3C//DTD SVG 1.1//EN" "http://www.w3.org/Graphics/SVG/1.1/DTD/svg11.dtd">
<svg version="1.1" id="Layer_1" xmlns="http://www.w3.org/2000/svg" xmlns:xlink="http://www.w3.org/1999/xlink" x="0px" y="0px"
	 width="256px" height="256px" viewBox="0 0 256 256" enable-background="new 0 0 256 256" xml:space="preserve">
<g>
	<path fill-rule="evenodd" clip-rule="evenodd" d="M77.411,82.327c0.313-1.417,1.375-1.396,2.517-1.396
		c25.1,0.015,50.199,0.011,75.298,0.011c6.312,0,12.624,0,19.174,0c0-0.984-0.021-1.87,0.003-2.756
		c0.112-3.977,2.963-6.897,6.945-6.928c7.114-0.054,14.229-0.036,21.343,0.009c3.564,0.023,6.27,2.373,6.895,5.894
		c0.208,1.17,0.288,2.363,0.455,3.783c0.726,0,1.502-0.007,2.278,0.001c4.471,0.043,7.321,2.843,7.376,7.403
		c0.063,5.463,0.018,10.928,0.02,16.392c0.001,0.656,0,1.313,0,1.824c3.511-1.106,6.837-2.211,10.202-3.175
		c0.885-0.253,1.926-0.238,2.84-0.061c5.092,0.988,10.081,2.342,14.73,4.713c3.801,1.938,6.664,4.766,7.908,8.941
		c0.956,3.213,0.09,5.062-2.854,6.522c-1.681,0.832-3.381,1.624-5.068,2.44c-0.091,0.044-0.15,0.153-0.332,0.344
		c1.161,0.745,2.304,1.465,3.435,2.206c2.023,1.325,2.32,2.078,1.619,4.429c-1.27,4.258-3.403,7.918-7.2,10.46
		c-0.413,0.276-0.742,0.968-0.771,1.485c-0.096,1.701-0.01,3.413-0.038,5.119c-0.044,2.696-1.969,3.79-4.257,2.364
		c-4.104-2.556-8.151-5.202-12.262-7.746c-0.684-0.423-1.567-0.74-2.359-0.741c-35.571-0.036-71.144-0.03-106.714-0.029
		c-0.337,0-0.672,0-1.106,0c-0.383,2.019-0.714,3.965-1.129,5.894c-0.398,1.845-1.609,2.772-3.073,2.464
		c-1.551-0.326-2.285-1.707-1.875-3.604c0.893-4.142,1.436-8.298,0.523-12.513c-0.133-0.609-0.41-1.191-0.5-1.804
		c-0.123-0.829-0.132-1.676-0.207-2.765c-1.414-0.152-3.335-0.536-5.257-0.539c-25.27-0.049-50.54-0.043-75.81-0.05
		c-6.578-0.001-13.155-0.007-19.733,0.002c-3.848,0.005-5.66,1.753-5.7,5.615c-0.02,1.864,0.158,3.73,0.257,5.807
		c0.861,0,1.527,0,2.192,0c31.303,0,62.606,0,93.909,0c3.525,0,4.045,0.518,4.049,4.037c0.002,1.593,0.038,3.188-0.021,4.78
		c-0.06,1.621-1.088,2.593-2.581,2.561c-1.376-0.028-2.386-1.016-2.465-2.524c-0.061-1.179-0.012-2.363-0.012-3.651
		c-30.084,0-59.986,0-90.279,0c1.148,1.061,2.098,1.906,3.013,2.786c1.542,1.481,1.531,2.937-0.066,4.378
		c-1.519,1.373-3.022,2.776-4.646,4.018c-1.117,0.855-1.689,1.891-1.483,3.198c0.421,2.673,0.965,5.329,1.504,7.983
		c0.283,1.395,1.186,1.777,2.605,1.775c20.432-0.046,40.865-0.031,61.297-0.029c9.239,0,18.478,0.006,27.717,0.004
		c2.734-0.001,3.665-0.663,4.52-3.215c1.372-4.094,2.723-8.194,4.101-12.287c0.657-1.947,1.871-2.748,3.363-2.276
		c1.579,0.499,2.122,1.917,1.456,3.925c-1.411,4.262-2.762,8.547-4.312,12.76c-0.511,1.393-1.362,2.786-2.411,3.822
		c-0.941,0.93-1.381,1.756-1.328,3.057c0.095,2.272,0.052,4.553,0.017,6.829c-0.026,1.747-1.019,2.833-2.5,2.847
		c-1.471,0.012-2.54-1.093-2.574-2.809c-0.048-2.44-0.012-4.883-0.012-7.454c-26.697,0-53.295,0-80.065,0
		c-0.258,1.85,0.251,4.526-2.815,4.36c-2.654-0.144-2.321-2.455-2.37-4.492c-2.203,0-4.292-0.067-6.375,0.02
		c-1.743,0.072-2.861-0.613-3.71-2.141c-2.604-4.679-3.598-9.649-3.065-14.961c0.155-1.553,0.699-2.799,1.984-3.78
		c1.342-1.024,2.558-2.216,3.916-3.411c-1.952-1.783-3.821-3.442-5.624-5.171c-0.554-0.53-1.25-1.218-1.323-1.894
		c-0.386-3.545-1.028-7.142-0.761-10.658c0.41-5.414,4.278-8.639,9.698-8.868c0.391-0.017,0.784-0.002,1.373-0.002
		c0.039-0.676,0.102-1.272,0.103-1.87c0.006-5.18,0.072-10.36-0.037-15.537c-0.044-2.058,0.664-3.661,2.361-4.581
		c2.229-1.208,4.604-2.156,6.955-3.125c0.932-0.385,1.966-0.525,3.075-0.807c-0.386-3.096-0.716-6.189,1.941-8.643
		c-2.309-3.776-2.827-7.769-1.562-11.967c1.79-5.94,5.978-9.437,12.137-10.085c1.638-0.172,3.293-0.297,4.937-0.265
		c7.371,0.147,11.53,5.63,9.778,12.832c-0.224,0.919-0.51,1.823-0.838,2.982c2.9-0.61,5.591-1.277,8.318-1.719
		c2.499-0.405,5.041-0.799,7.555-0.749c1.429,0.029,2.839,0.961,4.435,1.553c1.259-2.266,3.544-2.871,6.249-2.88
		c-0.048,0.358-0.094,0.698-0.145,1.07c0.432,0.072,0.867,0.144,1.301,0.217c-0.678,0.469-0.956,0.971-0.368,1.759
		c0.419,0.563,0.678,1.244,1.008,1.873c-1.255-0.28-2.51-0.558-3.768-0.837c0.04-0.354,0.074-0.652,0.107-0.951
		c-0.449,0.449-0.57,0.92-0.523,1.374c0.105,1.005,0.372,1.997,0.433,3.002c0.195,3.247,0.662,6.4,1.948,9.451
		c1.367,3.243,2.51,6.586,3.605,9.934c0.448,1.368,1.13,1.747,2.536,1.745c43.419-0.039,86.837-0.031,130.256-0.035
		c0.602,0,1.203-0.051,1.864-0.081c0.035-0.555,0.083-0.944,0.083-1.333c0.003-6.373,0.008-12.747-0.003-19.12
		c-0.006-2.532-0.537-3.034-3.152-3.036c-9.218-0.003-18.437-0.001-27.655-0.001c-3.281,0-3.279,0-3.615-3.178
		c-0.01-0.086-0.104-0.163-0.224-0.34c-0.263,1.056-0.505,2.029-0.853,3.428c-0.851-0.685-1.672-1.347-2.661-2.144
		c-0.118,0.789-0.22,1.468-0.344,2.286c-2.104,0-4.125,0-6.321,0c0,0.715-0.017,1.273,0.003,1.831
		c0.152,4.264,0.308,8.527,0.47,12.79c0.072,1.895-0.779,3.07-2.316,3.17c-1.599,0.103-2.641-0.897-2.764-2.755
		c-0.154-2.328-0.303-4.657-0.355-6.987c-0.061-2.657-0.014-5.316-0.014-8.001c-14.577,0-28.832,0-43.195,0
		c-0.032,0.708-0.075,1.32-0.083,1.931c-0.061,5.121-0.099,10.243-0.179,15.363c-0.031,2.021-1.01,3.144-2.595,3.114
		c-1.619-0.031-2.5-1.149-2.483-3.191c0.034-3.926,0.088-7.852,0.122-11.778c0.015-1.799,0.002-3.6,0.002-5.539
		c-0.769,0-1.383,0-1.997,0c-11.381,0.001-22.762,0.003-34.144-0.003c-0.736-0.001-1.472-0.072-2.215-0.115
		c-0.038-0.717-0.008-1.44-0.121-2.14C77.873,83.274,77.599,82.807,77.411,82.327z M117.013,121.065
		c0.886-0.541,1.772-1.08,3.135-1.911c-1.057-0.378-1.708-0.847-2.153-0.699c-0.383,0.127-0.566,0.946-0.771,1.485
		c-0.132,0.351-0.142,0.749-0.207,1.126c-1.342-0.48-1.766-0.981-1.739-2.402c0.025-1.278,0.197-2.554,0.305-3.842
		c-0.251-0.05-0.415-0.113-0.578-0.113c-11.719-0.004-23.437-0.015-35.155,0.026c-0.608,0.002-1.317,0.329-1.803,0.722
		c-2.742,2.216-5.432,4.496-8.134,6.76c-1.315,1.103-2.621,2.219-4.321,3.658c1.256,0,1.976,0,2.696,0
		c12.686,0.001,25.371-0.01,38.055,0.023c1.179,0.003,2.421,0.104,3.514,0.494c0.896,0.319,2.274,0.748,1.053,2.713
		c0.839-0.658,1.26-0.987,1.789-1.401c2.633,3.261,4.781,6.575,4.71,10.905c17.423,0,34.672,0,51.903,0c0-2.607,0-5.076,0-7.691
		c-0.765,0-1.381,0-1.996,0c-6.201,0-12.403,0.116-18.601-0.038c-4.53-0.112-9.046-0.384-13.582-0.005
		c-2.011,0.17-3.21-1.145-2.548-2.603c0.274-0.604,1.052-0.979,1.635-1.488c-1.731-0.682-2.214-0.443-2.297,1.125
		c-0.05,0.945-0.011,1.895-0.011,2.733c-2.492,0-4.789-0.148-7.058,0.047c-1.778,0.153-2.375-0.484-2.224-2.133
		c0.026-0.282,0.007-0.568,0.009-0.852l-0.05,0.086c0.815-0.126,1.158-0.518,0.764-1.321c1.036,0.516,2.023,1.491,3.255,0.014
		c-1.082,0-2.164,0-3.246,0c1.462-0.188,2.923-0.522,4.387-0.534c3.253-0.028,6.509,0.168,9.763,0.156
		c4.107-0.016,8.215-0.216,12.322-0.22c23.731-0.023,47.461-0.01,71.192-0.016c0.711,0,1.422-0.069,2.08-0.104
		c0.484-2.771-0.2-4.887-2.275-6.574c-1.233-1-2.391-2.117-3.45-3.299c-0.84-0.937-1.754-1.217-2.984-1.216
		c-30.276,0.03-60.55,0.023-90.826,0.022c-2.866,0-2.866,0-3.133,2.818C120.156,120.489,120.041,120.608,117.013,121.065z
		 M39.462,92.197c1.434,2.781,3.01,5.31,4.082,8.036c1.766,4.487,3.268,9.083,4.728,13.682c0.27,0.85,0.064,2.078-0.393,2.854
		c-0.325,0.552-1.641,1.075-2.157,0.836c-0.907-0.418-1.879-1.3-2.231-2.216c-1.867-4.875-3.407-9.877-5.364-14.713
		c-0.877-2.17-2.357-4.13-3.754-6.046c-1.374-1.884-3.075-0.617-4.63-0.131c-1.415,0.441-1.752,1.573-1.509,2.857
		c0.336,1.782,0.628,3.604,1.25,5.294c2.73,7.411,5.592,14.772,8.35,22.173c0.367,0.983,0.99,1.059,1.831,1.057
		c5.576-0.016,11.151,0.007,16.727-0.039c0.632-0.005,1.401-0.185,1.87-0.571c5.488-4.519,10.921-9.104,16.395-13.638
		c0.734-0.608,0.849-1.144,0.516-2.04c-2.318-6.231-4.558-12.491-6.86-18.728c-1.335-3.617-3.657-4.568-7.318-3.004
		c0.09,0.301,0.172,0.618,0.275,0.926c1.203,3.61,2.449,7.207,3.596,10.834c0.547,1.73,0.979,3.505,1.332,5.286
		c0.338,1.707-0.49,2.976-1.936,3.253c-1.373,0.263-2.523-0.563-2.98-2.147c-0.079-0.272-0.128-0.554-0.21-0.826
		c-1.652-5.473-3.307-10.946-4.992-16.519c-1.825,0.405-3.222,0.716-4.733,1.052c0.31,0.809,0.56,1.377,0.748,1.966
		c2.385,7.463,4.794,14.92,7.117,22.404c0.578,1.862-0.247,3.223-1.864,3.583c-1.385,0.309-2.575-0.592-3.057-2.286
		c-1.15-4.043-2.203-8.119-3.494-12.116c-1.356-4.198-2.942-8.32-4.451-12.539C43.879,91.257,41.666,91.728,39.462,92.197z
		 M174.521,138.623c16.355,0,32.518,0,48.708,0c0-2.594,0-5.063,0-7.612c-0.609-0.034-1.111-0.088-1.614-0.088
		c-15.127-0.007-30.255-0.007-45.383-0.008c-0.229,0-0.521-0.088-0.67,0.021c-0.381,0.281-0.98,0.639-0.996,0.986
		C174.477,134.123,174.521,136.33,174.521,138.623z M24.632,104.708c-2.389,0.824-4.686,1.601-6.972,2.409
		c-1.216,0.43-1.665,1.25-1.634,2.608c0.096,4.32,0.037,8.645,0.037,12.967c0,1.001,0,2.003,0,3.184c5.664,0,11.069,0,16.666,0
		C30.014,118.776,27.404,111.953,24.632,104.708z M40.168,87.039c1.341-0.542,2.984-0.687,3.413-1.483
		c1.053-1.961,1.837-4.175,2.195-6.375c0.48-2.95-1.192-4.821-4.192-5.027c-1.801-0.124-3.627,0.181-5.44,0.155
		c-5.283-0.075-9.166,6.553-7.627,11.802c0.792,2.704,1.284,3.023,3.962,2.302c0.576-0.156,1.274-0.631,1.508-1.146
		c1.029-2.261,2.031-4.549,2.802-6.907c0.65-1.985,1.697-2.956,3.335-2.536c1.484,0.38,2.154,1.788,1.659,3.729
		C41.349,83.246,40.8,84.909,40.168,87.039z M250.738,118.666c-0.456-0.882-0.827-1.634-1.228-2.37
		c-0.761-1.402-1.69-1.808-3.315-1.077c-5.326,2.397-10.71,4.665-16.102,6.915c-2.885,1.204-2.737,2.713-0.636,4.83
		c0.235,0.237,0.584,0.369,0.801,0.618c0.694,0.795,1.329,0.703,2.224,0.198c2.272-1.281,4.614-2.443,6.954-3.602
		C243.143,122.342,246.868,120.55,250.738,118.666z M228.533,138.746c3.837,0,7.591-0.213,11.309,0.068
		c2.857,0.216,4.485-1.064,5.735-3.299c0.388-0.693,0.859-1.389,1.018-2.143c0.104-0.49-0.119-1.303-0.491-1.594
		c-1.159-0.906-2.421-1.705-3.724-2.389c-0.488-0.256-1.308-0.299-1.792-0.064c-2.402,1.164-4.767,2.413-7.097,3.718
		c-1.164,0.651-2.239,0.7-3.384,0.065c-0.479-0.264-0.975-0.494-1.574-0.795C228.533,134.514,228.533,136.529,228.533,138.746z
		 M204.563,80.942c0.642-3.549-0.202-4.614-3.507-4.618c-6.132-0.008-12.267,0-18.399-0.001c-2.529,0-3.036,0.416-3.502,2.887
		c-0.341,1.808,0.011,2.138,1.816,1.779c0.438-0.087,0.904-0.045,1.357-0.045c6.701-0.002,13.402-0.001,20.104-0.001
		C203.155,80.942,203.878,80.942,204.563,80.942z M226.893,117.881c4.88-2.168,9.878-4.388,14.876-6.608
		c0.026-0.17,0.054-0.342,0.08-0.514c-3.65-0.811-7.306-2.273-10.95-2.245c-3.42,0.026-6.85,1.574-9.89,3.77
		C223.04,114.216,224.923,116.006,226.893,117.881z M239.012,143.928c-0.853,0-1.599,0-2.345,0
		c-0.034,0.093-0.069,0.186-0.103,0.278c0.759,0.467,1.519,0.935,2.447,1.503C239.012,144.924,239.012,144.447,239.012,143.928z"/>
	<path fill-rule="evenodd" clip-rule="evenodd" d="M56.436,157.067c12.92,0,25.84,0,38.76,0.001c0.512,0,1.032-0.045,1.535,0.026
		c1.439,0.204,2.242,1.048,2.273,2.517c0.03,1.432-0.848,2.17-2.123,2.492c-0.43,0.109-0.906,0.047-1.361,0.047
		c-26.124,0.004-52.249,0.006-78.374,0.008c-2.348,0-3.655-1.212-3.246-3.07c0.386-1.748,1.706-2.033,3.263-2.031
		C30.255,157.076,43.346,157.067,56.436,157.067z"/>
	<path fill-rule="evenodd" clip-rule="evenodd" d="M122.64,127.705c-0.399,0.836-0.798,1.673-1.197,2.51
		c-0.188,0.041-0.376,0.08-0.563,0.12c-0.315-0.843-0.949-1.716-0.869-2.52c0.118-1.185,1.027-1.919,2.132-1.856
		c0.179,0.734,0.313,1.284,0.448,1.834C122.59,127.791,122.64,127.705,122.64,127.705z"/>
</g>
</svg>
