<?xml version="1.0" encoding="utf-8"?>
<!-- Generator: Adobe Illustrator 16.0.0, SVG Export Plug-In . SVG Version: 6.00 Build 0)  -->
<!DOCTYPE svg PUBLIC "-//W3C//DTD SVG 1.1//EN" "http://www.w3.org/Graphics/SVG/1.1/DTD/svg11.dtd">
<svg version="1.1" id="Layer_1" xmlns="http://www.w3.org/2000/svg" xmlns:xlink="http://www.w3.org/1999/xlink" x="0px" y="0px"
	 width="256px" height="256px" viewBox="0 0 256 256" enable-background="new 0 0 256 256" xml:space="preserve">
<rect display="none" fill-rule="evenodd" clip-rule="evenodd" fill="#FFFFFF" width="256" height="256"/>
<g>
	<path fill-rule="evenodd" clip-rule="evenodd" d="M71.376,70.201c8.264,3.896,11.681,10.863,14.286,18.56
		c2.411,7.125,5.422,14.048,7.776,21.19c1.207,3.658,3.059,4.625,6.779,4.104c21.8-3.043,43.745-5.205,65.41-8.99
		c20.167-3.522,35.767,4.863,50.484,16.509c4.541,3.593,5.548,9.281,2.581,14.218c-4.479,7.449-9.873,14.351-14.919,21.542
		c12.588,6.727,26.597,14.054,40.449,21.665c11.218,6.165,14.763,18.869,8.65,29.825c-3.289,5.896-8.725,8.32-13.977,4.421
		c-8.878-6.594-17.203-5.662-26.153-0.991c-2.374,1.24-5.017,2.015-7.594,2.808c-4.514,1.386-7.976,2.805-8.354,8.921
		c-0.374,6.039-6.254,9.179-14.104,9.188c-32.262,0.031-64.523,0.016-96.785,0.019c-10.045,0.001-20.091,0.062-30.136-0.005
		c-10.209-0.065-14.837-4.682-14.868-14.917c-0.054-18.738,0.087-37.477-0.077-56.213c-0.03-3.372-0.636-6.921-1.817-10.072
		C26.62,118.913,14.049,85.912,1.55,52.885c-3.621-9.57-1.709-13.748,7.898-17.388c9.564-3.623,19.099-7.329,28.722-10.788
		c12.872-4.628,23.341,0.316,28.292,13.153c1.111,2.88,2.103,5.809,3.304,8.652C72.976,54.124,75.536,61.771,71.376,70.201z
		 M185.793,221.293c0-20.896,0.004-41.157-0.001-61.418c-0.003-12.38-4.021-15.833-16.376-14.191
		c-31.955,4.241-63.916,8.449-95.872,12.695c-6.984,0.928-13.955,1.957-20.677,2.904c0,20.468,0,40.078,0,60.01
		C97.18,221.293,141.119,221.293,185.793,221.293z M199.57,144.239c3.029-4.67,6.008-9.262,9.139-14.093
		c-3.775-2.465-6.946-4.306-9.863-6.485c-9.01-6.728-18.939-8.765-30.049-7.222c-33.245,4.616-66.533,8.918-99.803,13.358
		c-4.205,0.562-8.485,0.872-12.572,1.919c-5.671,1.452-8.577,7.285-7.432,13.246c1.352,7.033,6.443,3.965,10.003,3.514
		c32.53-4.132,65.116-7.971,97.505-13.043c15.393-2.411,29.476-2.661,41.703,8.486C198.326,144.033,198.57,144.015,199.57,144.239z
		 M57.246,118.32c-9.615-25.406-19.396-51.251-29.289-77.394c-5.702,2.187-10.819,4.147-16.157,6.194
		c10.251,27.018,20.24,53.346,30.039,79.173C47.233,123.503,51.951,121.061,57.246,118.32z M56.164,82.215
		c3.085,8.238,6.173,16.509,9.279,24.774c4.336,11.546,4.342,11.545,16.594,9.07c0.174-0.035,0.325-0.185,1.221-0.719
		C79.364,105.334,75.817,94.996,71.3,85.1C68.759,79.534,62.55,78.801,56.164,82.215z M198.166,167.487
		c-2.315,8.066,0.46,12.085,7.227,15.118c9.635,4.319,18.729,9.846,28.07,14.822c3.147,1.679,6.35,3.258,9.683,4.963
		c1.88-5.415,1.158-9.855-3.234-12.326C226.204,182.358,212.264,175.07,198.166,167.487z M51.575,70.231
		c9.763-2.374,12.08-6.493,8.974-15.134c-1.625-4.52-3.236-9.049-5.046-13.495c-3.145-7.721-8.881-9.147-16.188-3.879
		C43.337,48.391,47.393,59.145,51.575,70.231z M212.952,199.565c-5.644-2.926-10.299-5.341-15.083-7.823c0,4.872,0,8.964,0,13.519
		c3.43-1.2,6.329-2.176,9.196-3.23C208.66,201.441,210.209,200.722,212.952,199.565z"/>
	<path fill-rule="evenodd" clip-rule="evenodd" d="M176.921,168.861c-0.052,7.526-6.251,13.632-13.696,13.486
		c-7.42-0.143-13.533-6.538-13.318-13.93c0.21-7.256,6.167-13.075,13.475-13.162C170.854,155.167,176.972,161.314,176.921,168.861z"
		/>
</g>
</svg>
