<?xml version="1.0" encoding="utf-8"?>
<!-- Generator: Adobe Illustrator 16.0.0, SVG Export Plug-In . SVG Version: 6.00 Build 0)  -->
<!DOCTYPE svg PUBLIC "-//W3C//DTD SVG 1.1//EN" "http://www.w3.org/Graphics/SVG/1.1/DTD/svg11.dtd">
<svg version="1.1" id="Layer_1" xmlns="http://www.w3.org/2000/svg" xmlns:xlink="http://www.w3.org/1999/xlink" x="0px" y="0px"
	 width="256px" height="256px" viewBox="0 0 256 256" enable-background="new 0 0 256 256" xml:space="preserve">
<rect display="none" fill-rule="evenodd" clip-rule="evenodd" fill="#FFFFFF" width="256" height="256"/>
<g>
	<path fill-rule="evenodd" clip-rule="evenodd" d="M30.286,84.453c0.179-3.845-0.003-7.434,0.572-10.895
		c1.753-10.559,10.34-17.776,21.045-17.82c16.871-0.069,33.742-0.021,50.613-0.021c33.654,0,67.306-0.002,100.958,0.001
		c14.242,0.001,23.078,8.843,23.088,23.086c0.002,1.773,0,3.546,0,5.587c0.795-0.363,1.408-0.631,2.012-0.919
		c7.338-3.511,14.402-3.011,20.717,2.112c6.4,5.192,8.664,12.178,6.289,20.062c-5.52,18.33-11.264,36.594-17.137,54.814
		c-2.586,8.023-8.389,12.728-16.684,14.306c-0.857,0.164-1.721,0.3-2.891,0.502c0.889,5.396,1.76,10.701,2.637,16.009
		c0.23,1.397,0.541,2.788,0.709,4.196c0.354,2.972-1.344,5.045-4.33,5.156c-2.748,0.103-5.555,0.334-8.236-0.102
		c-1.527-0.249-3.297-1.409-4.195-2.69c-4.783-6.831-9.363-13.804-13.918-20.792c-0.916-1.408-1.844-2.012-3.602-2.01
		c-39.602,0.061-79.204,0.058-118.807,0.003c-1.738-0.003-2.689,0.562-3.616,1.982c-4.501,6.918-9.169,13.725-13.672,20.64
		c-1.411,2.166-3.159,3.196-5.746,3.024c-1.945-0.13-3.906-0.015-5.859-0.027c-4.342-0.03-5.977-1.992-5.25-6.202
		c0.967-5.594,1.901-11.192,2.827-16.792c0.126-0.764,0.126-1.548,0.175-2.172c-2.708-0.759-5.36-1.21-7.766-2.235
		c-5.57-2.372-9.614-6.465-11.465-12.261C12.848,142.507,6.95,124.01,1.383,105.417C-0.942,97.653,1.379,90.732,7.7,85.605
		c6.318-5.123,13.369-5.656,20.708-2.146C28.957,83.721,29.483,84.027,30.286,84.453z M210.445,122.365
		c0.33-0.487,0.527-0.674,0.596-0.898c2.25-7.28,4.498-14.562,6.713-21.853c0.201-0.664,0.27-1.391,0.271-2.091
		c0.016-6.834,0.076-13.669-0.014-20.504c-0.096-7.274-5.605-12.751-12.934-12.756c-51.039-0.032-102.078-0.032-153.119,0
		C44.511,64.268,39.083,69.802,39,77.271c-0.05,4.348,0.283,8.722-0.068,13.044c-0.927,11.427,4.82,21.198,7.289,32.551
		c5.159-6.968,11.917-7.624,19.173-7.526c14.911,0.201,29.825,0.158,44.736,0.016c6.79-0.065,13.372,0.084,18.365,5.838
		c4.508-4.854,9.946-5.905,15.971-5.847c15.799,0.157,31.602,0.195,47.4-0.012C199.059,115.242,205.686,116.019,210.445,122.365z
		 M128.536,166.556c29.564,0,59.128,0.006,88.693-0.003c7.121-0.003,11.457-3.213,13.594-10.018
		c1.328-4.227,2.639-8.46,3.961-12.689c4.096-13.112,8.16-26.233,12.313-39.327c1.24-3.912,1.074-7.559-1.574-10.8
		c-2.563-3.132-5.982-4.473-9.965-3.706c-4.295,0.826-7.025,3.55-8.307,7.731c-4.338,14.15-8.676,28.3-13.021,42.446
		c-1.375,4.483-2.143,5.049-6.77,5.049c-52.469,0.002-104.94,0.001-157.41,0.001c-5.272,0-5.806-0.392-7.33-5.353
		c-4.293-13.979-8.56-27.965-12.895-41.93c-2.3-7.411-9.972-10.421-16.029-6.375c-4.157,2.777-5.553,7.421-3.821,12.975
		c5.354,17.174,10.729,34.343,16.104,51.511c2.357,7.527,6.4,10.486,14.296,10.486C69.763,166.557,99.149,166.556,128.536,166.556z
		 M124.078,136.619c1.233-8.549-2.899-12.99-11.311-12.804c-16.856,0.373-33.732,0.325-50.59,0.003
		c-6.549-0.126-11.989,4.2-10.04,12.801C76.055,136.619,99.989,136.619,124.078,136.619z M132.787,136.533
		c24.316,0,48.316,0,72.445,0c0-1.591,0.063-3.004-0.01-4.412c-0.236-4.515-3.725-8.137-8.242-8.155
		c-18.641-0.075-37.281-0.074-55.924-0.001c-4.508,0.019-8.029,3.656-8.258,8.143C132.729,133.515,132.787,134.93,132.787,136.533z
		 M46.837,175.144c-0.92,5.694-1.818,11.249-2.715,16.803c0.329,0.125,0.658,0.248,0.987,0.374
		c3.75-5.628,7.499-11.253,11.446-17.177C53.095,175.144,50.185,175.144,46.837,175.144z M211.902,192.289
		c0.342-0.124,0.684-0.246,1.025-0.37c-0.92-5.579-1.84-11.159-2.754-16.697c-3.289,0-6.248,0-9.648,0
		C204.453,181.111,208.178,186.701,211.902,192.289z"/>
	<path fill-rule="evenodd" clip-rule="evenodd" d="M64.694,93.936c0-2.737,0-5.359,0-8.181c2.677,0,5.363,0,8.226,0
		c0,2.659,0,5.344,0,8.181C70.257,93.936,67.634,93.936,64.694,93.936z"/>
	<path fill-rule="evenodd" clip-rule="evenodd" d="M94.461,93.913c0-2.799,0-5.358,0-8.136c2.705,0,5.393,0,8.278,0
		c0,2.589,0,5.275,0,8.136C100.076,93.913,97.39,93.913,94.461,93.913z"/>
	<path fill-rule="evenodd" clip-rule="evenodd" d="M132.658,85.699c0,2.766,0,5.388,0,8.199c-2.707,0-5.392,0-8.245,0
		c0-2.688,0-5.371,0-8.199C127.106,85.699,129.73,85.699,132.658,85.699z"/>
	<path fill-rule="evenodd" clip-rule="evenodd" d="M154.213,93.9c0-2.824,0-5.447,0-8.203c2.738,0,5.363,0,8.197,0
		c0,2.64,0,5.326,0,8.203C159.787,93.9,157.102,93.9,154.213,93.9z"/>
	<path fill-rule="evenodd" clip-rule="evenodd" d="M192.363,85.771c0,2.738,0,5.36,0,8.148c-2.775,0-5.461,0-8.289,0
		c0-2.688,0-5.311,0-8.148C186.701,85.771,189.389,85.771,192.363,85.771z"/>
</g>
</svg>
