<?xml version="1.0" encoding="utf-8"?>
<!-- Generator: Adobe Illustrator 16.0.0, SVG Export Plug-In . SVG Version: 6.00 Build 0)  -->
<!DOCTYPE svg PUBLIC "-//W3C//DTD SVG 1.1//EN" "http://www.w3.org/Graphics/SVG/1.1/DTD/svg11.dtd">
<svg version="1.1" id="Layer_1" xmlns="http://www.w3.org/2000/svg" xmlns:xlink="http://www.w3.org/1999/xlink" x="0px" y="0px"
	 width="256px" height="256px" viewBox="0 0 256 256" enable-background="new 0 0 256 256" xml:space="preserve">
<rect display="none" fill-rule="evenodd" clip-rule="evenodd" fill="#FFFFFF" width="256" height="256"/>
<path fill-rule="evenodd" clip-rule="evenodd" d="M223.395,190.597c0,8.49,0.012,16.491-0.006,24.49
	c-0.01,4.34-1.477,5.808-5.785,5.829c-3.678,0.02-7.358,0.046-11.038-0.011c-3.1-0.047-4.468-1.198-5.141-4.271
	c-1.876-8.597-3.721-17.201-5.63-26.037c-1.036,0-1.94,0-2.845,0c-43.144,0.001-86.286,0.027-129.429-0.063
	c-2.535-0.007-3.482,0.719-3.946,3.163c-1.404,7.394-3.061,14.737-4.604,22.105c-0.843,4.023-2.113,5.097-6.177,5.111
	c-3.496,0.012-6.992,0.029-10.487-0.003c-3.95-0.033-5.512-1.55-5.538-5.529c-0.048-7.175-0.012-14.351-0.01-21.524
	c0-0.999,0-1.995,0-3.257c-6.735,0-13.247,0.003-19.758-0.003c-5.045-0.005-6.24-0.967-6.634-5.904
	c-1.454-18.238-2.832-36.485-4.238-54.729c-0.658-8.525-1.21-17.062-2.004-25.575c-0.882-9.457,2.95-15.905,11.756-19.551
	c0.791-0.327,1.681-1.433,1.777-2.265c2.847-24.344,23.923-43.833,49.321-46.41c3.559-0.361,7.155-0.49,10.734-0.493
	c37.255-0.035,74.513-0.096,111.769,0.007c18.712,0.052,34.377,6.983,46.242,21.709c5.835,7.242,9.339,15.558,10.456,24.813
	c0.188,1.57,0.767,2.346,2.304,2.914c8.048,2.974,12.139,9.843,11.439,18.332c-1.689,20.527-3.252,41.065-4.864,61.599
	c-0.549,6.966-1.074,13.935-1.654,20.898c-0.261,3.117-1.985,4.613-5.356,4.64c-5.795,0.044-11.591,0.013-17.387,0.014
	C225.675,190.597,224.688,190.597,223.395,190.597z M21.902,84.423c6.975,2.503,11.756,6.525,13.021,13.771
	c1.785,10.225,3.569,20.45,5.335,30.677c0.752,4.353,0.731,4.357,5.043,4.354c1.84-0.002,3.68-0.005,5.521-0.005
	c53.728-0.003,107.457-0.021,161.186,0.045c2.271,0.003,3.192-0.585,3.569-2.883c1.729-10.514,3.724-20.984,5.438-31.5
	c1.042-6.39,4.546-10.675,10.308-13.311c0.883-0.404,1.765-0.808,2.723-1.248c-0.503-2.391-0.839-4.575-1.427-6.688
	c-5.324-19.17-23.927-33.253-44.538-33.318c-40.021-0.126-80.042-0.167-120.062,0.113c-5.563,0.039-11.412,1.327-16.613,3.357
	C34.812,54.262,24.729,66.346,21.902,84.423z M240.833,181.63c0.149-0.501,0.234-0.675,0.249-0.853
	c2.021-26.225,4.05-52.448,6.05-78.674c0.368-4.832-2.675-8.612-7.225-9.118c-4.845-0.54-9.278,2.78-10.021,7.422
	c-0.74,4.624-1.543,9.239-2.351,13.852c-1.088,6.218-2.207,12.431-3.336,18.78c0.703,0.161,1.134,0.251,1.561,0.358
	c6.665,1.682,10.398,6.44,10.461,13.36c0.021,2.208,0.031,4.418-0.039,6.623c-0.22,6.802-5.078,11.959-11.881,12.544
	c-2.563,0.222-5.144,0.328-7.716,0.329c-59.252,0.019-118.504,0.02-177.755,0c-2.48,0-4.97-0.116-7.438-0.356
	c-6.518-0.634-11.331-5.731-11.586-12.255c-0.105-2.665-0.084-5.337-0.013-8.004c0.125-4.713,2.377-8.27,6.366-10.614
	c1.695-0.997,3.688-1.487,5.625-2.238c-0.022-0.283-0.023-0.647-0.083-1.002c-1.815-10.59-3.643-21.179-5.455-31.77
	c-0.527-3.081-2.285-5.224-5.116-6.359c-6.388-2.562-13.085,1.576-12.312,9.935c1.921,20.785,3.313,41.62,4.928,62.434
	c0.402,5.189,0.845,10.376,1.273,15.606C90.462,181.63,165.594,181.63,240.833,181.63z M127.712,157.44
	c18.942,0,37.886-0.02,56.828,0.005c12.32,0.018,24.64,0.092,36.961,0.145c4.684,0.021,6.302-1.571,6.345-6.264
	c0.013-1.381,0.036-2.762-0.012-4.139c-0.131-3.816-1.818-5.49-5.668-5.572c-2.471-0.051-4.944-0.015-7.418-0.015
	c-22.62,0.001-45.241,0.001-67.861,0.003c-37.508,0.002-75.017,0.008-112.525,0.005c-4.46,0-6.175,1.653-6.221,6.133
	c-0.018,1.747-0.102,3.505,0.069,5.236c0.29,2.921,1.948,4.456,4.889,4.579c1.832,0.075,3.674-0.106,5.511-0.107
	C68.311,157.44,98.011,157.443,127.712,157.44z M41.483,190.76c0,7.277,0,14.289,0,21.39c1.827,0,3.44,0,5.217,0
	c1.551-7.149,3.077-14.18,4.641-21.39C47.936,190.76,44.837,190.76,41.483,190.76z M214.545,212.137c0-7.172,0-14.173,0-21.331
	c-3.297,0-6.447,0-9.847,0c1.556,7.244,3.066,14.278,4.583,21.331C211.143,212.137,212.748,212.137,214.545,212.137z"/>
</svg>
